#!OML:ASF F:\VICON\USERDATA\INSTALL\Justin_Nancy\Justin_Nancy.ASF
:FULLY-SPECIFIED
:DEGREES
417
root 0.451397 17.311 15.2065 1.08939 -6.11331 -4.40059
lowerback 7.13867 1.76423 5.42971
upperback -0.012672 2.90697 2.72426
thorax -3.89324 1.36013 -0.517323
lowerneck -17.7327 -3.73663 -9.66516
upperneck 19.9995 -3.71082 5.27683
head 9.53805 -1.88001 2.93575
rclavicle -2.14687e-014 -3.26007e-014
rhumerus -24.8111 -9.54942 -78.7225
rradius 37.1915
rwrist 0.860381
rhand -16.9207 11.6315
rfingers 7.12502
rthumb 9.31189 -18.1428
lclavicle -2.14687e-014 -3.26007e-014
lhumerus -32.5711 15.9542 82.2195
lradius 28.0863
lwrist -5.58038
lhand -17.7656 19.6839
lfingers 7.12502
lthumb 8.49651 49.493
rfemur 0.0634075 5.44937 31.9696
rtibia 21.5216
rfoot -15.6129 -5.49929
rtoes 6.75816
lfemur -32.0276 -0.643871 -13.2587
ltibia 44.3976
lfoot -8.11359 5.31095
ltoes -9.24961
418
root 0.455874 17.3026 15.3896 1.29918 -6.25907 -4.35113
lowerback 7.05562 1.90073 5.46283
upperback -0.132193 3.08972 2.67497
thorax -3.95823 1.44644 -0.603552
lowerneck -17.2275 -3.78927 -9.65974
upperneck 19.6477 -3.81881 5.23769
head 9.33084 -1.93652 2.90578
rclavicle 4.70126e-014 4.77083e-015
rhumerus -24.7219 -8.98834 -78.6716
rradius 38.0125
rwrist 0.0477965
rhand -16.9144 11.2355
rfingers 7.12502
rthumb 9.31798 -18.5385
lclavicle 4.70126e-014 4.77083e-015
lhumerus -33.1468 16.5112 81.8549
lradius 28.6433
lwrist -5.69154
lhand -15.1938 23.0724
lfingers 7.12502
lthumb 10.9778 52.7654
rfemur 0.735098 5.30212 31.8917
rtibia 21.043
rfoot -15.7583 -5.58407
rtoes 6.57307
lfemur -32.054 -1.4696 -13.0318
ltibia 41.5069
lfoot -7.7848 6.44921
ltoes -7.79726
419
root 0.463715 17.2981 15.5776 1.56192 -6.45804 -4.17647
lowerback 6.78177 2.00078 5.39797
upperback -0.193903 3.19562 2.5687
thorax -3.86048 1.50104 -0.677741
lowerneck -17.1315 -3.73194 -9.48054
upperneck 19.4416 -3.76993 5.14147
head 9.23154 -1.90944 2.84769
rclavicle -6.16232e-015 3.02153e-014
rhumerus -24.6389 -8.4275 -78.7667
rradius 38.979
rwrist -0.493648
rhand -16.965 10.8913
rfingers 7.12502
rthumb 9.26913 -18.885
lclavicle -6.16232e-015 3.02153e-014
lhumerus -33.6843 16.6716 81.6409
lradius 28.975
lwrist -6.36287
lhand -13.2619 26.8472
lfingers 7.12502
lthumb 12.8407 56.4322
rfemur 1.39421 5.01594 31.6204
rtibia 20.4847
rfoot -15.8877 -5.63651
rtoes 5.66796
lfemur -32.0909 -2.33074 -12.9155
ltibia 38.5746
lfoot -7.51922 7.65301
ltoes -6.39925
420
root 0.472016 17.2868 15.7595 1.89572 -6.73004 -4.07887
lowerback 6.46272 2.1222 5.35129
upperback -0.170498 3.32644 2.53672
thorax -3.65072 1.57218 -0.682593
lowerneck -17.2981 -3.74715 -9.54304
upperneck 19.2772 -3.76304 5.1893
head 9.2066 -1.90119 2.87251
rclavicle 1.63997e-015 -1.11319e-014
rhumerus -24.1268 -8.0733 -78.7429
rradius 39.4602
rwrist -0.533851
rhand -17.0083 10.9028
rfingers 7.12502
rthumb 9.22732 -18.8753
lclavicle 1.63997e-015 -1.11319e-014
lhumerus -33.7768 17.1386 81.539
lradius 28.4894
lwrist -7.75423
lhand -12.8844 27.8426
lfingers 7.12502
lthumb 13.2046 57.4045
rfemur 2.0369 4.91391 31.4237
rtibia 19.859
rfoot -16.0694 -5.62469
rtoes 5.24122
lfemur -32.2759 -3.00571 -12.6946
ltibia 35.6712
lfoot -6.87694 8.61799
ltoes -5.99311
421
root 0.47321 17.271 15.9485 2.10334 -7.07115 -4.14495
lowerback 6.2517 2.28866 5.43202
upperback -0.0611597 3.53131 2.54054
thorax -3.4038 1.67994 -0.728508
lowerneck -17.7111 -3.83378 -9.69248
upperneck 19.3411 -3.83664 5.34466
head 9.31635 -1.92453 2.93898
rclavicle -1.55549e-014 -3.65764e-014
rhumerus -23.4129 -7.63863 -78.6865
rradius 39.6588
rwrist -0.706281
rhand -16.9591 11.1691
rfingers 7.12502
rthumb 9.27481 -18.6069
lclavicle -1.55549e-014 -3.65764e-014
lhumerus -33.55 17.723 81.4014
lradius 27.8858
lwrist -8.27469
lhand -13.1259 26.7524
lfingers 7.12502
lthumb 12.9718 56.3292
rfemur 2.87514 4.96195 31.4623
rtibia 19.2127
rfoot -16.2142 -5.74069
rtoes 4.5174
lfemur -32.3311 -3.4524 -12.2888
ltibia 32.9336
lfoot -6.10709 9.35463
ltoes -7.60066
422
root 0.476862 17.2525 16.1435 2.30469 -7.48883 -4.09782
lowerback 6.11334 2.45251 5.39537
upperback -0.151184 3.73949 2.4945
thorax -3.40838 1.78231 -0.76834
lowerneck -17.6175 -3.81954 -9.81155
upperneck 19.3483 -3.8461 5.57156
head 9.30937 -1.91435 3.03782
rclavicle -1.19768e-014 -7.95139e-015
rhumerus -23.1579 -7.27146 -78.6504
rradius 39.8605
rwrist -0.800296
rhand -17.063 11.8229
rfingers 7.12502
rthumb 9.17457 -17.9575
lclavicle -1.19768e-014 -7.95139e-015
lhumerus -33.9129 18.2682 81.0225
lradius 27.4048
lwrist -8.24101
lhand -13.4984 24.3561
lfingers 7.12502
lthumb 12.6128 53.9554
rfemur 3.80063 5.01535 31.3341
rtibia 18.551
rfoot -16.1616 -5.80834
rtoes 3.53079
lfemur -32.343 -4.24762 -11.8599
ltibia 30.3963
lfoot -5.81798 10.4314
ltoes -9.0439
423
root 0.483414 17.2242 16.3192 2.52514 -7.85583 -4.19249
lowerback 6.1191 2.53655 5.47112
upperback -0.245677 3.86235 2.49425
thorax -3.49893 1.83822 -0.823284
lowerneck -17.4713 -3.72627 -9.63962
upperneck 19.2019 -3.75678 5.49218
head 9.21867 -1.86897 2.99316
rclavicle -4.77083e-015 1.90833e-014
rhumerus -22.8858 -6.85178 -78.6887
rradius 40.0248
rwrist -0.633284
rhand -17.2237 12.5602
rfingers 7.12502
rthumb 9.01945 -17.227
lclavicle -4.77083e-015 1.90833e-014
lhumerus -34.2825 19.0506 80.5525
lradius 26.8834
lwrist -8.86797
lhand -13.0218 24.8723
lfingers 7.12502
lthumb 13.0721 54.4426
rfemur 4.74299 5.02906 31.3538
rtibia 17.8191
rfoot -15.9707 -5.93788
rtoes 3.15057
lfemur -32.5548 -5.17158 -11.2246
ltibia 28.134
lfoot -6.17422 11.8622
ltoes -9.52085
424
root 0.491007 17.1923 16.4965 2.70237 -8.03239 -4.25366
lowerback 6.05667 2.56734 5.5397
upperback -0.168902 3.89957 2.52064
thorax -3.37946 1.85971 -0.831447
lowerneck -17.7428 -3.75985 -9.56582
upperneck 19.0793 -3.76487 5.37246
head 9.22239 -1.87492 2.93454
rclavicle 1.15792e-014 -4.77083e-015
rhumerus -22.109 -6.48694 -78.7064
rradius 39.9579
rwrist -0.59021
rhand -17.5426 12.7071
rfingers 7.12502
rthumb 8.71179 -17.0931
lclavicle 1.15792e-014 -4.77083e-015
lhumerus -34.4818 19.2831 80.4991
lradius 26.803
lwrist -9.42763
lhand -11.8107 27.8764
lfingers 7.12502
lthumb 14.2394 57.3682
rfemur 5.6562 5.01536 31.3351
rtibia 17.1494
rfoot -15.8876 -6.09556
rtoes 1.76234
lfemur -32.8663 -5.92073 -10.7451
ltibia 26.1117
lfoot -7.03788 13.0533
ltoes -8.9576
425
root 0.496048 17.1679 16.682 2.92479 -8.26114 -4.19472
lowerback 5.91939 2.69151 5.55248
upperback -0.171394 4.05181 2.42914
thorax -3.28928 1.93675 -0.937234
lowerneck -17.9661 -3.84281 -9.35105
upperneck 19.0636 -3.88128 5.2158
head 9.2591 -1.92719 2.8265
rclavicle -1.83379e-014 -1.03368e-014
rhumerus -21.7266 -6.42721 -78.6956
rradius 40.1847
rwrist -0.706812
rhand -17.3521 12.6083
rfingers 7.12502
rthumb 8.89554 -17.1842
lclavicle -1.83379e-014 -1.03368e-014
lhumerus -34.7215 19.2646 80.4019
lradius 26.6069
lwrist -9.84334
lhand -11.3845 28.2949
lfingers 7.12502
lthumb 14.6501 57.7574
rfemur 6.46134 5.15965 31.1619
rtibia 16.5673
rfoot -16.0399 -5.93867
rtoes 0.658448
lfemur -33.2465 -6.59624 -10.4137
ltibia 24.4024
lfoot -8.07505 14.0117
ltoes -8.38301
426
root 0.498259 17.1514 16.8635 3.13146 -8.43431 -4.16308
lowerback 5.86965 2.77717 5.50571
upperback -0.243073 4.16062 2.3639
thorax -3.32824 1.98914 -0.986332
lowerneck -18.1518 -3.79866 -9.27177
upperneck 19.2185 -3.85473 5.32898
head 9.34448 -1.89561 2.85713
rclavicle 4.03036e-014 1.90833e-014
rhumerus -21.5375 -6.36189 -78.7282
rradius 40.5014
rwrist -0.783744
rhand -17.2851 12.2716
rfingers 7.12502
rthumb 8.9602 -17.5181
lclavicle 4.03036e-014 1.90833e-014
lhumerus -34.8382 19.4614 80.1452
lradius 26.0972
lwrist -10.0253
lhand -11.1885 27.9845
lfingers 7.12502
lthumb 14.8389 57.4332
rfemur 7.24098 5.4156 31.0528
rtibia 16.0007
rfoot -16.1186 -5.83489
rtoes -0.00470372
lfemur -33.6474 -7.34411 -10.0152
ltibia 23.0573
lfoot -9.35173 14.6537
ltoes -7.10708
427
root 0.503648 17.1363 17.0546 3.34375 -8.49817 -4.16415
lowerback 5.61602 2.78014 5.53648
upperback -0.294981 4.14894 2.33168
thorax -3.2357 1.98448 -1.02274
lowerneck -18.1729 -3.70213 -9.35011
upperneck 19.3182 -3.75105 5.55192
head 9.38018 -1.82929 2.96391
rclavicle 2.6985e-014 1.35174e-014
rhumerus -21.4584 -6.1166 -78.789
rradius 40.8159
rwrist -0.836686
rhand -17.3483 12.7303
rfingers 7.12502
rthumb 8.89923 -17.062
lclavicle 2.6985e-014 1.35174e-014
lhumerus -35.0822 20.0078 79.7523
lradius 25.6415
lwrist -10.5725
lhand -10.3262 29.1695
lfingers 7.12502
lthumb 15.6695 58.555
rfemur 7.91674 5.35981 30.8734
rtibia 15.6454
rfoot -16.401 -5.64386
rtoes -0.229622
lfemur -33.9513 -8.19686 -9.60552
ltibia 21.9803
lfoot -10.5555 15.2344
ltoes -6.55495
428
root 0.512855 17.1165 17.2573 3.40334 -8.56084 -4.40273
lowerback 5.41266 2.7712 5.86663
upperback -0.245507 4.14086 2.38995
thorax -3.05221 1.9809 -1.13085
lowerneck -18.2669 -3.66947 -9.47976
upperneck 19.488 -3.7062 5.73008
head 9.45885 -1.79885 3.05598
rclavicle 2.03754e-014 1.19271e-014
rhumerus -21.2748 -6.11194 -78.7946
rradius 40.9824
rwrist -0.425535
rhand -17.348 13.0909
rfingers 7.12502
rthumb 8.89952 -16.7014
lclavicle 2.03754e-014 1.19271e-014
lhumerus -35.4215 20.5788 79.4047
lradius 25.2084
lwrist -11.4287
lhand -10.0665 29.8553
lfingers 7.12502
lthumb 15.9197 59.221
rfemur 8.69743 5.1983 30.9329
rtibia 15.5067
rfoot -16.7824 -5.42532
rtoes -2.60271
lfemur -33.9679 -9.07138 -9.02423
ltibia 21.1751
lfoot -11.6319 15.8929
ltoes -8.11642
